<?xml version="1.0" encoding="UTF-8" standalone="no"?>
<!DOCTYPE svg PUBLIC "-//W3C//DTD SVG 1.1//EN" "http://www.w3.org/Graphics/SVG/1.1/DTD/svg11.dtd">
<svg width="100%" height="100%" viewBox="0 0 721 467" version="1.1" xmlns="http://www.w3.org/2000/svg" xmlns:xlink="http://www.w3.org/1999/xlink" xml:space="preserve" xmlns:serif="http://www.serif.com/" style="fill-rule:evenodd;clip-rule:evenodd;stroke-linecap:round;stroke-linejoin:round;stroke-miterlimit:1.5;">
    <g transform="matrix(1.33333,0,0,1.33333,-193.836,-145.071)">
        <g id="Artboard3" transform="matrix(1,0,0,1,1259.94,0)">
            <rect x="-1259.94" y="0" width="842.972" height="731.432" style="fill:none;"/>
            <g id="burger-logo" serif:id="burger logo">
                <g transform="matrix(1,0,0,1,-1256.71,103.356)">
                    <path d="M657.892,289.153C657.892,310.124 656.873,344.723 621.809,349.357C580.66,354.795 249.898,359.357 198.605,346.249C163.468,337.27 164.254,310.309 164.139,289.339C164.845,289.451 165.702,289.582 166.883,289.752C165.702,289.582 164.845,289.451 164.139,289.339C164.139,289.277 164.139,289.215 164.139,289.153L657.892,289.153Z" style="stroke:rgb(25,25,25);stroke-width:1px;"/>
                </g>
                <g transform="matrix(1,0,0,1.4122,-1256.71,-171.357)">
                    <path d="M164.139,289.153C164.139,239.253 274.76,198.74 411.015,198.74C547.27,198.74 657.892,239.253 657.892,289.153L164.139,289.153Z" style="stroke:rgb(25,25,25);stroke-width:0.82px;"/>
                </g>
                <g transform="matrix(1.09063,0,0,1.52901,-1297.1,-167.085)">
                    <path d="M186.942,355.001C176.122,354.899 167.369,346.083 167.369,335.24C167.369,324.396 176.122,315.58 186.942,315.478L642.621,315.478L642.735,315.477C653.642,315.477 662.497,324.332 662.497,335.24C662.497,346.147 653.642,355.002 642.735,355.002L642.621,355.001L186.942,355.001Z"/>
                </g>
                <g transform="matrix(1.02138,0,0,1.15927,-1252.95,-38.6362)">
                    <path d="M421.486,299.092L490.938,343.623C490.938,343.623 494.179,334.307 519.263,319.629C544.346,304.95 560.616,299.656 560.616,299.656" style="fill:none;stroke:white;stroke-width:11.9px;stroke-linecap:butt;"/>
                </g>
                <g transform="matrix(1,0,0,1,-1269.55,-17.5745)">
                    <path d="M186.582,298.274C186.582,298.274 207.279,272.21 233.802,274.854C260.325,277.497 262.86,298.674 286.402,300.264C309.944,301.854 310.094,277.05 338.823,277.846C367.552,278.643 369.41,302.203 392.719,302.756C416.029,303.309 420.968,278.166 449.451,279.051C477.934,279.936 470.178,302.358 495.619,302.267C521.061,302.176 520.81,279.465 549.039,281.149C577.268,282.833 572.145,302.946 596.461,302.57C620.778,302.194 607.194,284.302 633.161,283.403C659.128,282.505 662.497,300.025 662.497,300.025" style="fill:none;stroke:black;stroke-width:22px;stroke-linecap:square;"/>
                </g>
                <g transform="matrix(0.913878,0.405989,-0.405989,0.913878,-1063.8,0.240256)">
                    <path d="M130.339,123.558C131.825,121.393 134.317,119.972 137.138,119.972C141.685,119.972 145.377,123.664 145.377,128.211C145.377,131.374 143.258,134.37 140.974,135.503C139.483,136.243 137.132,136.275 132.862,137.363C128.62,138.444 120.28,140.406 120.28,140.406L130.339,123.558Z" style="fill:white;"/>
                </g>
                <g transform="matrix(0.523073,0.852288,-0.852288,0.523073,-886.963,-24.6284)">
                    <path d="M130.339,123.558C131.825,121.393 134.317,119.972 137.138,119.972C141.685,119.972 145.377,123.664 145.377,128.211C145.377,131.374 143.258,134.37 140.974,135.503C139.483,136.243 137.132,136.275 132.862,137.363C128.62,138.444 120.28,140.406 120.28,140.406L130.339,123.558Z" style="fill:white;"/>
                </g>
                <g transform="matrix(0.956114,0.292995,-0.292995,0.956114,-1045.89,40.9744)">
                    <path d="M130.339,123.558C131.825,121.393 134.317,119.972 137.138,119.972C141.685,119.972 145.377,123.664 145.377,128.211C145.377,131.374 143.258,134.37 140.974,135.503C139.483,136.243 137.132,136.275 132.862,137.363C128.62,138.444 120.28,140.406 120.28,140.406L130.339,123.558Z" style="fill:white;"/>
                </g>
            </g>
        </g>
    </g>
</svg>
