<?xml version="1.0" encoding="UTF-8" standalone="no"?>
<!DOCTYPE svg PUBLIC "-//W3C//DTD SVG 1.1//EN" "http://www.w3.org/Graphics/SVG/1.1/DTD/svg11.dtd">
<svg width="100%" height="100%" viewBox="0 0 43 41" version="1.1" xmlns="http://www.w3.org/2000/svg" xmlns:xlink="http://www.w3.org/1999/xlink" xml:space="preserve" xmlns:serif="http://www.serif.com/" style="fill-rule:evenodd;clip-rule:evenodd;stroke-linejoin:round;stroke-miterlimit:2;">
    <g transform="matrix(1,0,0,1,-99.292,-686.475)">
        <g transform="matrix(1,0,0,1,-1287.9,281.815)">
            <g transform="matrix(1,0,0,1,-307.648,15.3488)">
                <g transform="matrix(4.16667,0,0,4.16667,0,-2465.78)">
                    <path d="M415.28,694.986L408.48,694.986C407.973,694.986 407.56,694.566 407.56,694.05L407.56,689.126C407.56,688.946 407.703,688.8 407.88,688.8C408.057,688.8 408.2,688.946 408.2,689.126L408.2,694.05C408.2,694.207 408.326,694.335 408.48,694.335L415.28,694.335C415.434,694.335 415.56,694.207 415.56,694.05L415.56,689.126C415.56,688.946 415.703,688.8 415.88,688.8C416.057,688.8 416.2,688.946 416.2,689.126L416.2,694.05C416.2,694.566 415.787,694.986 415.28,694.986" style="fill:rgb(53,51,50);fill-rule:nonzero;"/>
                </g>
                <g transform="matrix(4.16667,0,0,4.16667,0,-2500.84)">
                    <path d="M416.68,698.681C416.598,698.681 416.516,698.649 416.454,698.586L412.474,694.537C412.146,694.204 411.614,694.204 411.286,694.537L407.306,698.586C407.181,698.713 406.979,698.713 406.854,698.586C406.729,698.459 406.729,698.252 406.854,698.125L410.833,694.076C411.411,693.489 412.349,693.489 412.926,694.076L416.906,698.125C417.031,698.252 417.031,698.458 416.906,698.586C416.844,698.649 416.762,698.681 416.68,698.681" style="fill:rgb(53,51,50);fill-rule:nonzero;"/>
                </g>
                <g transform="matrix(4.16667,0,0,4.16667,0,-2457.63)">
                    <path d="M413.16,693.032L410.6,693.032C410.423,693.032 410.28,692.886 410.28,692.706L410.28,689.817C410.28,689.256 410.729,688.8 411.28,688.8L412.48,688.8C413.031,688.8 413.48,689.256 413.48,689.817L413.48,692.706C413.48,692.886 413.337,693.032 413.16,693.032M410.92,692.381L412.84,692.381L412.84,689.817C412.84,689.615 412.678,689.451 412.48,689.451L411.28,689.451C411.082,689.451 410.92,689.615 410.92,689.817L410.92,692.381Z" style="fill:rgb(53,51,50);fill-rule:nonzero;"/>
                </g>
            </g>
        </g>
    </g>
</svg>
