<?xml version="1.0" encoding="UTF-8" standalone="no"?>
<!DOCTYPE svg PUBLIC "-//W3C//DTD SVG 1.1//EN" "http://www.w3.org/Graphics/SVG/1.1/DTD/svg11.dtd">
<svg width="100%" height="100%" viewBox="0 0 26 44" version="1.1" xmlns="http://www.w3.org/2000/svg" xmlns:xlink="http://www.w3.org/1999/xlink" xml:space="preserve" xmlns:serif="http://www.serif.com/" style="fill-rule:evenodd;clip-rule:evenodd;stroke-linejoin:round;stroke-miterlimit:2;">
    <g transform="matrix(1,0,0,1,-100.01,-602.228)">
        <g transform="matrix(4.16667,0,0,4.16667,-1604.11,-2328.72)">
            <path d="M414.227,703.427L409.761,703.427C409.334,703.427 408.989,703.768 408.989,704.189L408.989,713.119C408.989,713.538 409.334,713.88 409.761,713.88L414.227,713.88C414.653,713.88 415,713.538 415,713.119L415,704.189C414.999,703.768 414.653,703.427 414.227,703.427M414.421,711.896L409.569,711.896L409.569,704.712L414.421,704.712L414.421,711.896ZM413.03,704.2L410.959,704.2L410.959,703.978L413.03,703.978L413.03,704.2ZM413.915,704.098C413.915,704.206 413.826,704.293 413.718,704.293C413.608,704.293 413.52,704.206 413.52,704.098C413.52,703.991 413.608,703.904 413.718,703.904C413.827,703.903 413.915,703.991 413.915,704.098M412.937,713.068L411.052,713.068L411.052,712.497L412.937,712.497L412.937,713.068Z" style="fill:rgb(53,51,50);fill-rule:nonzero;"/>
        </g>
    </g>
</svg>
