<?xml version="1.0" encoding="UTF-8" standalone="no"?>
<!DOCTYPE svg PUBLIC "-//W3C//DTD SVG 1.1//EN" "http://www.w3.org/Graphics/SVG/1.1/DTD/svg11.dtd">
<svg width="100%" height="100%" viewBox="0 0 323 342" version="1.1" xmlns="http://www.w3.org/2000/svg" xmlns:xlink="http://www.w3.org/1999/xlink" xml:space="preserve" xmlns:serif="http://www.serif.com/" style="fill-rule:evenodd;clip-rule:evenodd;stroke-miterlimit:10;">
    <g transform="matrix(1,0,0,1,-211.406,-132.921)">
        <g>
            <g transform="matrix(1.96939,-3.67187,-3.67187,-1.96939,2754.54,2042.09)">
                <path d="M76.024,685.377C75.328,686.356 74.686,687.389 74.102,688.477C68.747,698.461 69.874,710.188 76.024,718.833L83.672,715.953L76.024,685.377Z" style="fill:rgb(245,243,244);fill-rule:nonzero;"/>
            </g>
            <g transform="matrix(3.04328,2.84597,2.84597,-3.04328,-1915.1,2256.27)">
                <path d="M71.224,712.243L107.36,712.243C106.358,708.048 104.409,704.04 101.519,700.566L70.005,700.109L71.224,712.243Z" style="fill:rgb(112,155,165);fill-rule:nonzero;"/>
            </g>
            <g transform="matrix(4.16667,0,0,4.16667,0,-2710.72)">
                <path d="M78.883,720.512L69.705,728.541L63.552,733.92C61.641,730.065 60.565,725.723 60.565,721.132C60.565,719.518 60.699,717.93 60.957,716.39L60.996,716.399L70.032,708.653L81.172,718.507L78.883,720.512Z" style="fill:rgb(112,155,165);fill-rule:nonzero;"/>
            </g>
            <g transform="matrix(4.16667,0,0,4.16667,0,-2735.44)">
                <path d="M86,720.219L81.172,724.441L70.032,714.587L60.996,722.332L60.957,722.323C61.749,717.517 63.733,713.115 66.59,709.423L66.594,709.423L117.363,720.611L117.488,720.581C117.97,722.663 118.223,724.836 118.223,727.065C118.223,731.355 117.286,735.425 115.603,739.083L89.395,717.25L86,720.219Z" style="fill:white;fill-rule:nonzero;"/>
            </g>
            <g transform="matrix(4.16667,0,0,4.16667,0,-2845.37)">
                <path d="M117.488,746.965L117.363,746.995L66.594,735.808C69.124,732.537 72.347,729.826 76.039,727.895L76.043,727.895L112.312,735.962L112.316,735.962C114.764,739.168 116.559,742.903 117.488,746.965" style="fill:rgb(245,243,244);fill-rule:nonzero;"/>
            </g>
            <g transform="matrix(3.20136,2.66691,2.66691,-3.20136,-1818.61,2337.69)">
                <path d="M83.811,720.978L117.922,720.978C118.314,719.546 118.587,718.088 118.748,716.626L83.103,716.523L83.811,720.978Z" style="fill:rgb(112,155,165);fill-rule:nonzero;"/>
            </g>
            <g transform="matrix(4.16667,0,0,4.16667,0,-2640.28)">
                <path d="M81.172,701.601L86,697.38L113.452,720.116C111.304,723.361 108.521,726.144 105.277,728.287L78.883,703.606L81.172,701.601Z" style="fill:rgb(112,155,165);fill-rule:nonzero;"/>
            </g>
            <g transform="matrix(-4.16667,0,0,4.16667,784.828,-2904.99)">
                <path d="M76.043,750.27L76.048,750.27L112.316,742.203C108.323,740.112 103.783,738.928 98.964,738.928C89.618,738.928 81.31,743.377 76.043,750.27" style="fill:rgb(177,209,216);fill-rule:nonzero;"/>
            </g>
            <g transform="matrix(4.16667,0,0,4.16667,0,-2712.01)">
                <path d="M76.145,696.083C80.108,694.008 84.612,692.833 89.395,692.833C98.669,692.833 106.913,697.248 112.14,704.088C114.57,707.27 116.35,710.976 117.272,715.006C117.75,717.073 118.002,719.229 118.002,721.441C118.002,725.698 117.071,729.737 115.402,733.366C114.791,734.708 114.074,735.993 113.267,737.209C111.137,740.429 108.374,743.191 105.154,745.318C101.585,747.679 97.456,749.263 93.007,749.822C91.824,749.972 90.62,750.049 89.395,750.049C78.152,750.049 68.426,743.563 63.75,734.131C61.855,730.305 60.787,725.997 60.787,721.441C60.787,719.84 60.92,718.264 61.176,716.736C61.961,711.966 63.93,707.598 66.765,703.935M66.769,703.935C69.28,700.69 72.478,698 76.141,696.083M115.44,733.396L115.402,733.366L89.395,711.701L86.026,714.648L81.235,718.836L78.963,720.826L69.856,728.794L63.75,734.131M81.282,718.879L81.235,718.836L70.181,709.058L61.214,716.744M76.141,696.083L76.145,696.083L112.136,704.088M66.765,703.935L66.769,703.935L117.148,715.036M85.979,714.609L86.026,714.648L113.267,737.209L113.305,737.239M78.934,720.801L78.963,720.826L105.154,745.318L105.193,745.352" style="fill:none;fill-rule:nonzero;stroke:rgb(177,209,216);stroke-width:2px;"/>
            </g>
            <g transform="matrix(4.16667,0,0,4.16667,0,-2562.4)">
                <path d="M69.824,693.095L69.925,693.188L92.814,713.868L92.83,713.88" style="fill:none;fill-rule:nonzero;stroke:rgb(177,209,216);stroke-width:3px;"/>
            </g>
        </g>
    </g>
</svg>
