<?xml version="1.0" encoding="UTF-8" standalone="no"?>
<!-- Created with Inkscape (http://www.inkscape.org/) -->

<svg
   width="2780.2949"
   height="1754.5116"
   viewBox="0 0 2780.2949 1754.5116"
   version="1.1"
   id="svg1"
   xmlns="http://www.w3.org/2000/svg"
   xmlns:svg="http://www.w3.org/2000/svg">
  <defs
     id="defs1">
    <clipPath
       clipPathUnits="userSpaceOnUse"
       id="clipPath125">
      <rect
         style="fill:#ccd5ae;fill-rule:evenodd;stroke:none;stroke-width:10;stroke-dasharray:none;stroke-opacity:1"
         id="rect126"
         width="2505.2683"
         height="1006.79"
         x="-1507.8438"
         y="-2500.5854" />
    </clipPath>
    <clipPath
       clipPathUnits="userSpaceOnUse"
       id="clipPath139">
      <ellipse
         style="display:none;fill:#fefae0;fill-rule:evenodd;stroke:#484a43;stroke-width:10;stroke-dasharray:none;stroke-opacity:0.00392157"
         id="ellipse139"
         cx="-1084.5553"
         cy="-1299.6252"
         rx="30.126535"
         ry="2.5105445"
         d="m -1054.4288,-1299.6252 a 30.126535,2.5105445 0 0 1 -30.1265,2.5105 30.126535,2.5105445 0 0 1 -30.1265,-2.5105 30.126535,2.5105445 0 0 1 30.1265,-2.5106 30.126535,2.5105445 0 0 1 30.1265,2.5106 z" />
      <path
         id="lpe_path-effect144"
         style="display:none;fill:#fefae0;fill-rule:evenodd;stroke:#484a43;stroke-width:10;stroke-dasharray:none;stroke-opacity:0.00392157"
         class="powerclip"
         d="m 927.26998,-1559.8429 h 48.45284 v 41.7581 h -48.45284 z m -1981.69878,260.2177 a 30.126535,2.5105445 0 0 0 -30.1265,-2.5106 30.126535,2.5105445 0 0 0 -30.1265,2.5106 30.126535,2.5105445 0 0 0 30.1265,2.5105 30.126535,2.5105445 0 0 0 30.1265,-2.5105 z" />
    </clipPath>
    <clipPath
       clipPathUnits="userSpaceOnUse"
       id="clipPath152">
      <path
         style="display:none;fill:#fefae0;fill-rule:evenodd;stroke:#484a43;stroke-width:10;stroke-dasharray:none;stroke-opacity:0.00392157"
         id="path152"
         clip-path="url(#clipPath139)"
         d="m 965.72282,-1538.9639 a 14.226419,10.879026 0 0 1 -14.22642,10.8791 14.226419,10.879026 0 0 1 -14.22642,-10.8791 14.226419,10.879026 0 0 1 14.22642,-10.879 14.226419,10.879026 0 0 1 14.22642,10.879 z" />
      <path
         id="lpe_path-effect153"
         style="fill:#fefae0;fill-rule:evenodd;stroke:#484a43;stroke-width:10;stroke-dasharray:none;stroke-opacity:0.00392157"
         class="powerclip"
         d="m -1573.1904,-2670.4595 h 2719.666 v 1304.4094 h -2719.666 z m 2538.91322,1131.4956 a 14.226419,10.879026 0 0 0 -14.22642,-10.879 14.226419,10.879026 0 0 0 -14.22642,10.879 14.226419,10.879026 0 0 0 14.22642,10.8791 14.226419,10.879026 0 0 0 14.22642,-10.8791 z" />
    </clipPath>
    <clipPath
       clipPathUnits="userSpaceOnUse"
       id="clipPath155">
      <rect
         style="fill:#fefae0;fill-rule:evenodd;stroke:#484a43;stroke-width:10;stroke-dasharray:none;stroke-opacity:0.00392157"
         id="rect156"
         width="333.76852"
         height="1010.3264"
         x="661.52319"
         y="-2510.7812" />
    </clipPath>
  </defs>
  <g
     id="layer1"
     transform="translate(1638.8193,2774.2319)">
    <rect
       style="fill:#ccd5ae;fill-rule:evenodd;stroke:none;stroke-width:10;stroke-dasharray:none;stroke-opacity:1"
       id="rect86"
       width="2505.2683"
       height="1006.79"
       x="-1507.8438"
       y="-2500.5854" />
  </g>
  <g
     id="layer2"
     style="display:inline"
     transform="translate(1638.8193,2774.2319)">
    <g
       id="g125"
       clip-path="url(#clipPath125)"
       transform="matrix(1.0466517,0,0,1.0803511,-60.63209,108.47148)">
      <path
         style="fill:#e9edc9;fill-rule:evenodd;stroke:#484a43;stroke-width:10;stroke-dasharray:none;stroke-opacity:0.00392157"
         d="m -1502.3675,-1914.5555 c -18.5137,-99.5124 -13.1873,-203.377 15.4089,-300.4735 10.129,-34.3922 23.4953,-68.5801 46.2267,-96.3056 23.7143,-28.9244 56.1378,-49.1009 84.7489,-73.1923 9.0563,-7.6256 17.7583,-15.6708 26.9656,-23.1133 29.6352,-23.955 64.184,-41.3624 100.1578,-53.9312 18.6402,-6.5127 38.0399,-11.8135 57.7834,-11.5566 9.0028,0.1171 18.0695,1.3869 26.9656,0 5.2342,-0.816 10.278,-2.5347 15.4089,-3.8523 31.234,-8.0207 64.0729,-0.972 96.3056,0 33.49729,1.0102 66.78857,-4.6088 100.15781,-7.7044 47.16064,-4.375 96.96882,-3.1763 138.68008,19.2611 29.66626,15.9581 53.05474,41.5786 72.53473,69.061 19.48,27.4823 35.60617,57.1997 54.58867,85.028 21.18508,31.0573 46.30939,60.5046 57.78336,96.3056 3.72402,11.6197 5.97069,23.8219 11.55668,34.67 2.124,4.1248 4.71383,8.0096 7.70445,11.5567 6.74888,5.728 11.02362,14.2774 11.55667,23.1133 0.15469,2.5641 0.009,5.1357 0,7.7045 -0.05,14.5401 4.27119,28.7075 8.81361,42.5199 4.54242,13.8125 9.38824,27.7274 10.44751,42.229 1.12394,15.3869 -2.0646,30.9376 0,46.2267 0.87643,6.4902 2.6872,12.8164 3.85222,19.2611 3.20772,17.7446 1.46659,35.9588 0,53.9312 -2.71848,33.3139 -4.45978,66.7387 -3.85222,100.1578 0.37363,20.5519 1.63405,41.1453 0,61.6356 -1.12906,14.1579 -3.61121,28.6384 0,42.3745 1.53014,5.8203 4.12139,11.3269 5.5338,17.1769 0.70621,2.9249 1.1136,5.9427 0.92057,8.9455 -0.19303,3.0028 -1.00557,5.9971 -2.60215,8.5476 -1.45002,2.3164 -3.49104,4.1968 -5.56785,5.973 -2.07682,1.7763 -4.22922,3.4928 -5.98882,5.5837 -2.42005,2.8758 -4.0028,6.3443 -5.61592,9.7391 -1.61311,3.3947 -3.32672,6.8214 -5.94075,9.522 -3.23131,3.3384 -7.57598,5.3085 -11.55667,7.7044 -12.51665,7.5334 -21.64262,19.4496 -30.8178,30.8178 -3.19506,3.9587 -6.44678,7.8991 -10.20931,11.323 -3.76254,3.4239 -8.07583,6.3355 -12.90404,7.9381 -3.8667,1.2834 -8.07251,1.7406 -11.55667,3.8523 -3.12143,1.8918 -5.34428,4.9202 -7.70445,7.7044 -9.09445,10.7285 -21.31986,18.6881 -34.67002,23.1134 -13.64658,4.5236 -28.18468,5.3932 -42.37446,7.7044 -14.93623,2.4328 -29.61944,6.4918 -44.68638,7.9049 -15.06694,1.413 -30.9784,-0.053 -43.91478,-7.9049 -3.95874,-2.403 -7.56438,-5.3576 -11.55668,-7.7044 -5.46635,-3.2133 -11.53886,-5.2207 -17.51663,-7.3355 -5.97776,-2.1148 -11.98578,-4.3989 -17.15339,-8.0734 -8.97286,-6.3803 -14.60385,-16.3205 -21.74633,-24.6994 -3.57124,-4.1894 -7.61737,-8.0665 -12.43376,-10.7324 -4.81638,-2.666 -10.4785,-4.0523 -15.89882,-3.0905 -1.29774,0.2303 -2.57466,0.5917 -3.88698,0.714 -1.31232,0.1224 -2.69953,-0.016 -3.81747,-0.714 -0.77359,-0.4831 -1.36778,-1.2 -1.94158,-1.9089 -0.57379,-0.7089 -1.15389,-1.4342 -1.91065,-1.9433 -0.81667,-0.5494 -1.80048,-0.8152 -2.78247,-0.8818 -0.98199,-0.067 -1.96749,0.057 -2.93554,0.235 -1.9361,0.3557 -3.89075,0.9307 -5.83866,0.6468 -1.43018,-0.2084 -2.75429,-0.87 -3.99053,-1.6187 -1.23624,-0.7487 -2.41699,-1.5957 -3.71392,-2.2335 -3.58015,-1.7607 -7.97652,-1.7607 -11.55667,0 -3.18516,-2.6729 -7.40478,-4.0795 -11.55667,-3.8522 -2.62801,0.1439 -5.18075,0.9098 -7.79005,1.2543 -1.30465,0.1722 -2.63118,0.2385 -3.93597,0.067 -1.30479,-0.1711 -2.59093,-0.5871 -3.68288,-1.3216 -1.51058,-1.016 -2.56228,-2.5677 -3.85222,-3.8523 -2.04867,-2.0402 -4.6827,-3.3878 -7.36,-4.4794 -2.6772,-1.0916 -5.4478,-1.9626 -8.0489,-3.225 -5.5382,-2.6879 -10.1402,-7.0974 -13.5671,-12.2115 -3.4269,-5.114 -5.7242,-10.9195 -7.3156,-16.8663 -3.1827,-11.8936 -3.6038,-24.3501 -6.0829,-36.41 -2.3864,-11.609 -6.6803,-22.8627 -7.7044,-34.6701 -1.1109,-12.8089 1.6788,-25.7753 0,-38.5222 -0.1694,-1.2859 -0.3841,-2.5683 -0.449,-3.8636 -0.065,-1.2954 0.025,-2.6152 0.449,-3.8408 0.7887,-2.2781 2.676,-4.0385 4.7869,-5.2028 2.111,-1.1642 4.4602,-1.8107 6.7698,-2.5017 27.1628,-8.1271 51.72898,-23.6845 72.71138,-42.753 20.98241,-19.0684 38.54978,-41.6091 54.41197,-65.1093 7.15239,-10.5964 14.17239,-21.9455 15.4089,-34.67 0.4971,-5.1155 0.0322,-10.2694 0,-15.4089 -0.0483,-7.7108 0.87741,-15.4524 0,-23.1133 -0.99264,-8.667 -4.27532,-16.9456 -8.5403,-24.5556 -4.26497,-7.61 -9.50909,-14.619 -14.72565,-21.6111 -5.21655,-6.9922 -10.4394,-14.0193 -14.65605,-21.6562 -4.21664,-7.6369 -7.42202,-15.9516 -8.30469,-24.6305 -0.8354,-8.2141 0.4217,-16.4748 1.01537,-24.7098 0.59368,-8.2351 0.46372,-16.8065 -2.9294,-24.3335 -1.69656,-3.7635 -4.21346,-7.1975 -7.50301,-9.6917 -3.28956,-2.4942 -7.37376,-4.0085 -11.50139,-3.9384 -4.12763,0.07 -8.26236,1.797 -10.98712,4.8983 -1.36237,1.5506 -2.3641,3.4225 -2.85813,5.4266 -0.49403,2.0041 -0.47535,4.1377 0.0937,6.1218 0.18598,0.6485 0.43061,1.2862 0.50527,1.9567 0.0373,0.3353 0.031,0.6777 -0.0467,1.006 -0.0777,0.3282 -0.22904,0.6423 -0.45861,0.8895 -0.23367,0.2516 -0.54288,0.4275 -0.8723,0.5243 -0.32943,0.097 -0.67863,0.1167 -1.02037,0.083 -0.68349,-0.067 -1.32756,-0.3391 -1.95955,-0.6077 -16.46368,-6.9982 -33.13662,-13.5179 -50.07892,-19.2611 -29.6332,-10.0453 -60.172,-17.7482 -88.6012,-30.8178 -20.1575,-9.2669 -39.2909,-21.2403 -60.7263,-26.9608 -10.7177,-2.8603 -21.9831,-4.0933 -32.9546,-2.4577 -10.9716,1.6357 -21.6466,6.2669 -29.5902,14.0096 -7.1913,7.0094 -11.9229,16.258 -19.2612,23.1133 -3.3983,3.1746 -7.3192,5.7885 -11.5566,7.7045 -3.6349,5.2946 -7.4916,10.437 -11.5567,15.4089 -17.2551,21.1043 -38.084,38.9402 -57.7834,57.7834 -7.8743,7.5321 -15.5812,15.239 -23.1133,23.1133 -5.0606,4.0606 -9.0755,9.4137 -11.5567,15.4089 -1.5533,3.7531 -2.5067,7.7241 -3.8522,11.5567 -4.6326,13.1956 -13.7276,24.3022 -23.1134,34.67 -5.9884,6.615 -12.2165,13.1186 -16.8386,20.7512 -4.622,7.6325 -7.5663,16.6465 -6.2747,25.4755 0.094,0.6428 0.2102,1.284 0.2447,1.9327 0.034,0.6488 -0.016,1.3116 -0.2447,1.9195 -0.3542,0.9401 -1.131,1.6946 -2.0499,2.1008 -0.9188,0.4063 -1.9674,0.4781 -2.9537,0.2872 -0.9863,-0.1909 -1.9127,-0.635 -2.735,-1.2122 -0.8223,-0.5771 -1.5451,-1.2856 -2.2111,-2.0378 -1.3319,-1.5043 -2.4543,-3.1984 -3.9184,-4.5744 -0.7321,-0.688 -1.5507,-1.2941 -2.4645,-1.7115 -0.9138,-0.4174 -1.9274,-0.6409 -2.9285,-0.5565 -1.3773,0.1161 -2.6407,0.7957 -3.9893,1.0989 -0.6742,0.1517 -1.3823,0.2074 -2.0548,0.048 -0.6725,-0.1594 -1.3075,-0.5527 -1.6604,-1.1469 -0.3354,-0.5648 -0.3912,-1.2558 -0.3277,-1.9096 0.064,-0.6539 0.2368,-1.2921 0.3277,-1.9427 0.3069,-2.1954 -0.3803,-4.5104 -1.8352,-6.1828 -1.4549,-1.6725 -3.6526,-2.6735 -5.8693,-2.6735 -2.2166,0 -4.4143,1.001 -5.8692,2.6735 -1.4549,1.6724 -2.1421,3.9874 -1.8352,6.1828"
         id="path119" />
      <path
         style="fill:#d4a373;fill-rule:evenodd;stroke:#484a43;stroke-width:10;stroke-dasharray:none;stroke-opacity:0.00392157"
         d="m 631.76479,-2554.0247 c -47.54021,-4.5541 -95.75999,-1.9476 -142.5323,7.7044 -40.61671,8.3817 -79.93354,21.9864 -119.41895,34.67 -40.98758,13.1661 -82.27837,25.3725 -123.27118,38.5223 -32.97508,10.5779 -65.95227,21.8512 -96.30561,38.5222 -87.10607,47.8413 -144.419884,134.9144 -196.463442,219.5768 -38.073438,61.9364 -75.773298,125.6999 -92.453388,196.4634 -12.15488,51.5658 -12.69759,105.0316 -15.40889,157.9412 -0.85538,16.6922 -1.92971,33.4766 0,50.079 2.59131,22.2944 10.51405,43.5835 15.40889,65.4878 5.44313,24.3579 7.17758,49.63 15.4089,73.1922 3.61948,10.3608 8.46445,20.2876 11.55667,30.8178 3.33675,11.3629 4.57882,23.2472 7.70445,34.67 3.65404,13.3539 9.816706,25.8572 15.4089,38.5223 11.173267,25.3051 20.16293,51.5168 30.817795,77.0445 16.839347,40.3449 37.816209,78.9073 61.6355893,115.5667 10.1158587,15.5689 21.0613877,31.626 23.1133457,50.0789 0.46538,4.1851 0.459671,8.4358 1.35662,12.55 0.448474,2.0571 1.125986,4.0766 2.161415,5.9098 1.03543,1.8332 2.439431,3.4785 4.186414,4.6536 1.605573,1.08 3.465194,1.7456 5.043124,2.8656 0.788966,0.56 1.507601,1.2391 2.009222,2.0664 0.501621,0.8274 0.774981,1.8127 0.652103,2.7724 -0.08577,0.6699 -0.357433,1.3032 -0.470221,1.969 -0.05639,0.333 -0.0723,0.6765 -0.0043,1.0072 0.068,0.3308 0.224468,0.6491 0.474524,0.876 0.2462,0.2234 0.571186,0.348 0.900808,0.3914 0.329622,0.043 0.665147,0.01 0.991772,-0.052 0.653251,-0.1241 1.295147,-0.3636 1.959644,-0.3394 0.782449,0.029 1.5227,0.433 2.055352,1.0069 0.532652,0.5739 0.872388,1.3053 1.08167,2.0597 0.418564,1.509 0.341187,3.1173 0.715202,4.6379 0.382075,1.5534 1.235166,2.9759 2.366268,4.1071 1.131101,1.1312 2.533371,1.976 4.033999,2.5302 3.001254,1.1083 6.321064,1.0519 9.473158,0.5039 3.152093,-0.5479 6.200465,-1.5656 9.301966,-2.3508 3.1015,-0.7853 6.320697,-1.3408 9.494629,-0.9382 4.067108,0.5159 7.754045,2.5538 11.419348,4.3904 3.665304,1.8366 7.600726,3.5435 11.693996,3.3141 2.66348,-0.1493 5.20973,-1.1134 7.84094,-1.5529 1.31561,-0.2197 2.66591,-0.3072 3.98245,-0.093 1.31654,0.2141 2.60247,0.7445 3.58551,1.646 0.67611,0.62 1.18946,1.3927 1.76265,2.109 0.57319,0.7162 1.23868,1.4003 2.08957,1.7432 0.60577,0.2441 1.2739,0.3005 1.92562,0.258 0.65171,-0.043 1.29291,-0.1804 1.93235,-0.3133 0.63944,-0.1329 1.28327,-0.2616 1.93595,-0.2853 0.65267,-0.024 1.31984,0.062 1.91053,0.3406 0.82799,0.3905 1.43815,1.1214 1.99261,1.8499 0.55446,0.7285 1.09845,1.4937 1.85962,2.0023 0.82221,0.5494 1.83866,0.7516 2.82738,0.7336 0.98873,-0.018 1.96118,-0.2427 2.91949,-0.4868 0.9583,-0.244 1.91627,-0.5096 2.89979,-0.6125 0.98353,-0.1028 2.00594,-0.035 2.91001,0.3657 0.83873,0.3718 1.53287,1.0095 2.13315,1.7033 0.60028,0.6938 1.12187,1.4525 1.71907,2.1489 1.7996,2.0987 4.26173,3.5816 6.90335,4.3969 2.64162,0.8154 5.45781,0.983 8.20816,0.7028 5.5007,-0.5605 10.65406,-2.8532 15.70629,-5.0997 7.44747,-3.3116 15.0348,-6.6234 23.11334,-7.7044 3.82948,-0.5124 7.7272,-0.5124 11.55668,0 5.16517,-1.1647 10.3033,-2.4492 15.40889,-3.8522 9.01432,-2.4771 17.92553,-5.323 26.96558,-7.7045 8.8135,-2.3218 17.85843,-4.211 26.96557,-3.8522 6.44581,0.2539 13.01706,1.6201 19.26112,0 2.79974,-0.7264 5.44345,-2.0483 7.70445,-3.8522 6.25205,-1.9893 12.72488,-3.2839 19.26112,-3.8523 5.12341,-0.4455 10.28549,-0.4455 15.4089,0 6.74797,-4.7203 14.88277,-7.4319 23.11334,-7.7044 3.85132,-0.1275 7.71238,0.2652 11.55667,0 7.01149,-0.4838 13.85024,-3.2193 19.26113,-7.7045"
         id="path120" />
      <path
         style="fill:#faedcd;fill-rule:evenodd;stroke:#484a43;stroke-width:10;stroke-dasharray:none;stroke-opacity:0.00392157"
         d="m 585.5381,-2673.4437 c -40.64474,120.6256 -65.32406,246.62 -73.19226,373.6658 -0.79828,12.8896 -1.43011,25.8371 -3.85223,38.5222 -2.22104,11.632 -5.93328,22.961 -7.70445,34.67 -1.73993,11.5025 -1.58831,23.2591 -3.85222,34.67 -1.82003,9.1736 -5.16968,17.9633 -7.70445,26.9656 -7.39141,26.2508 -7.76278,53.8903 -11.55667,80.8967 -4.42453,31.4955 -13.5117,62.1326 -23.11335,92.4534 -13.11866,41.4271 -27.2573,82.5309 -42.37447,123.2712 -10.4579,28.1837 -21.38796,56.2047 -30.81779,84.7489 -8.25155,24.9775 -15.40625,50.7393 -15.4089,77.0445 -0.002,19.3126 3.84161,38.8567 0,57.7834 -1.05328,5.1893 -2.67264,10.2469 -3.85222,15.4089 -3.31227,14.4949 -3.10498,29.5266 -3.1258,44.3951 -0.0208,14.8686 -0.31936,29.9605 -4.57865,44.206 -3.14421,10.516 -8.37644,20.3126 -11.55667,30.8178 -2.71185,8.958 -3.92427,18.4035 -7.70445,26.9656 -2.32045,5.2558 -5.56769,10.0757 -7.70445,15.4089 -2.9733,7.4211 -3.67949,15.5162 -4.72358,23.4423 -1.04408,7.9261 -2.54337,16.0382 -6.83309,22.7844 -2.91902,4.5906 -6.98749,8.316 -11.02569,11.9611 -4.03819,3.6452 -8.14167,7.3208 -11.15869,11.8476 -1.5085,2.2634 -2.73265,4.7318 -3.4556,7.354 -0.72294,2.6222 -0.93528,5.403 -0.44958,8.0793 0.4857,2.6763 1.68684,5.2425 3.55632,7.2183 1.86947,1.9757 4.41932,3.3332 7.12434,3.6186 1.27812,0.1348 2.5675,0.035 3.85222,0 5.14106,-0.142 10.31937,0.7398 15.4089,0 4.02905,-0.5857 7.83724,-2.1654 11.58321,-3.7604 3.74596,-1.595 7.52145,-3.2322 11.53014,-3.944 6.33395,-1.1247 12.82931,0.1251 19.26112,0 9.08703,-0.1768 17.90865,-3.0923 26.96557,-3.8523 12.82052,-1.0758 25.84356,2.185 38.52224,0 6.51431,-1.1227 12.68901,-3.6466 19.00512,-5.5968 6.3161,-1.9503 13.02249,-3.3389 19.51713,-2.1076 1.95378,0.3704 3.86618,0.9747 5.84386,1.1827 0.98884,0.1039 1.9935,0.1072 2.97211,-0.069 0.97862,-0.1759 1.93217,-0.5353 2.7407,-1.114 1.48037,-1.0596 2.38562,-2.7737 3.85222,-3.8522 1.16879,-0.8595 2.60418,-1.2519 3.98104,-1.7092 1.37686,-0.4573 2.78573,-1.036 3.72341,-2.1431 0.94373,-1.1142 1.27831,-2.6022 1.6792,-4.0062 0.20044,-0.702 0.4263,-1.4015 0.76693,-2.0473 0.34062,-0.6457 0.80288,-1.2396 1.4061,-1.6509 0.544,-0.3709 1.18679,-0.582 1.83936,-0.6695 0.65258,-0.088 1.31644,-0.055 1.96917,0.031 1.30547,0.1726 2.58144,0.5597 3.89591,0.6384 1.41096,0.084 2.83537,-0.1941 4.13522,-0.7494 1.29985,-0.5552 2.47635,-1.3831 3.48129,-2.3771 2.00989,-1.988 3.30885,-4.6003 4.14513,-7.3008 1.67254,-5.4008 1.62059,-11.2601 3.64726,-16.5383 1.80992,-4.7137 5.16636,-8.6641 8.72874,-12.2424 3.56239,-3.5783 7.40784,-6.9045 10.53238,-10.8709 6.41657,-8.1454 9.42229,-18.4992 15.4089,-26.9656 5.25407,-7.4304 12.56965,-13.0934 19.26112,-19.2611 24.43951,-22.5266 41.15344,-52.7322 50.07892,-84.749 2.51139,-9.0087 4.44223,-18.2008 7.70445,-26.9655 7.42991,-19.9623 21.56278,-37.1799 26.96557,-57.7834 2.30573,-8.7929 2.93714,-17.9216 3.85222,-26.9656 5.78341,-57.1589 23.19069,-112.5556 30.8178,-169.4978 4.03419,-30.1183 5.565,-61.4755 19.26112,-88.6012 3.13618,-6.2113 6.95233,-12.3437 7.70445,-19.2611 0.57708,-5.3075 -0.71863,-10.6455 -2.45649,-15.6935 -1.73786,-5.0481 -3.93016,-9.9507 -5.24796,-15.1243 -2.55832,-10.0438 -1.71834,-20.6753 -3.85223,-30.8178 -2.26217,-10.7522 -7.75866,-20.5075 -11.55667,-30.8178 -6.80151,-18.4638 -8.06811,-38.4184 -11.55667,-57.7834 -3.48384,-19.3388 -9.2288,-38.2715 -11.55667,-57.7833 -2.28771,-19.1752 -1.24107,-38.6495 -3.85223,-57.7834 -2.11344,-15.4868 -6.60896,-30.6348 -7.70445,-46.2267 -1.08056,-15.3793 1.17416,-30.8543 0,-46.2267 -0.69171,-9.056 -2.56611,-17.9747 -3.85222,-26.9655 -4.91625,-34.3683 -1.19941,-69.3935 -3.85223,-104.0101 -1.44432,-18.8469 -5.01165,-38.1453 -15.40889,-53.9311 -3.53238,-5.3631 -7.78482,-10.2114 -11.55668,-15.4089 -10.6246,-14.6402 -17.33699,-32.0925 -19.26112,-50.079 -2.34851,-0.8145 -4.41704,-2.4143 -5.79588,-4.4825 -1.37884,-2.0683 -2.06,-4.593 -1.90857,-7.0741 0.12084,-1.9799 0.75036,-3.8921 1.03241,-5.8555 0.14102,-0.9817 0.19452,-1.9831 0.0526,-2.9647 -0.14191,-0.9815 -0.48649,-1.9457 -1.08503,-2.7365 -0.55101,-0.728 -1.29285,-1.2834 -2.0035,-1.8566 -0.71066,-0.5732 -1.41481,-1.1923 -1.84872,-1.9956 -0.47098,-0.872 -0.58548,-1.9005 -0.50239,-2.888 0.0831,-0.9875 0.35235,-1.9485 0.61128,-2.9051 0.25894,-0.9566 0.51016,-1.9243 0.55571,-2.9143 0.0456,-0.99 -0.12884,-2.0156 -0.6646,-2.8493 -0.49472,-0.7698 -1.25548,-1.3216 -1.98363,-1.8759 -0.72814,-0.5543 -1.46304,-1.156 -1.8686,-1.9763 -0.45886,-0.9281 -0.43589,-2.0306 -0.19215,-3.0369 0.24375,-1.0063 0.69183,-1.949 1.06467,-2.9149 0.37283,-0.9659 0.6754,-1.9877 0.6061,-3.0207 -0.0346,-0.5166 -0.16445,-1.0302 -0.41125,-1.4852 -0.2468,-0.4551 -0.61365,-0.8497 -1.06737,-1.099 -0.57538,-0.3161 -1.25814,-0.3853 -1.91269,-0.3348 -0.65455,0.051 -1.29441,0.2131 -1.93953,0.3348 -4.51289,0.8513 -9.37883,-0.4059 -12.91442,-3.3369 -3.53559,-2.931 -5.67313,-7.4795 -5.67313,-12.072 0,-4.5925 2.13754,-9.141 5.67313,-12.072 3.53559,-2.931 8.40153,-4.1882 12.91442,-3.3369 z"
         id="path121" />
      <path
         style="fill:#fefae0;fill-rule:evenodd;stroke:#484a43;stroke-width:10;stroke-dasharray:none;stroke-opacity:0.00392157"
         d="m -489.23249,-2211.1768 c -6.54659,-37.7348 -27.56873,-72.7717 -57.78337,-96.3056 -5.06545,-3.9454 -10.37157,-7.5754 -15.40889,-11.5567 -6.64705,-5.2536 -12.81259,-11.1083 -19.62216,-16.1494 -6.80957,-5.0411 -14.41499,-9.3087 -22.75231,-10.8161 -6.33971,-1.1462 -12.85222,-0.6571 -19.26112,0 -32.60065,3.3425 -64.61443,10.9158 -96.30561,19.2611 -17.73047,4.669 -35.58796,9.6629 -51.62113,18.557 -16.03317,8.8942 -30.29415,22.154 -36.98003,39.2264 -5.69354,14.5385 -5.53572,30.7254 -3.48751,46.204 2.04821,15.4786 5.89639,30.7026 7.33973,46.2493 1.42547,15.3542 0.48724,30.8142 0,46.2267 -0.66674,21.0905 -0.4699,42.3716 3.77146,63.042 4.24137,20.6704 12.76039,40.8475 27.04634,56.377 2.45935,2.6734 5.07605,5.197 7.70445,7.7044 14.53146,13.8626 29.54362,27.3416 46.22669,38.5223 14.8226,9.9339 30.82271,17.9595 46.22669,26.9656 15.99535,9.3518 31.35489,19.7662 46.22669,30.8178 19.08709,14.184 38.34178,29.8844 61.63559,34.67 15.15103,3.1127 30.8151,1.3136 46.22669,0 18.22507,-1.5535 37.05944,-2.5506 53.49881,-10.5702 8.21968,-4.0098 15.69413,-9.8055 20.84736,-17.3611 5.15323,-7.5555 7.84855,-16.9469 6.55054,-25.9999 -0.0921,-0.6426 -0.20386,-1.2839 -0.23657,-1.9322 -0.0327,-0.6483 0.0161,-1.3095 0.23657,-1.92 0.31301,-0.8667 0.95211,-1.5791 1.65649,-2.1733 0.70437,-0.5942 1.48522,-1.0921 2.19574,-1.6789 2.1126,-1.7448 3.534,-4.2415 4.23645,-6.8899 0.70244,-2.6485 0.71736,-5.4453 0.33356,-8.1583 -0.7676,-5.4259 -3.07686,-10.497 -4.57001,-15.7696 -3.87289,-13.676 -2.1673,-28.2609 -3.85223,-42.3745 -1.11286,-9.3218 -3.72463,-18.463 -7.70444,-26.9656 -3.57881,-5.6598 -4.97889,-12.6602 -3.85223,-19.2611 0.44633,-2.615 1.2716,-5.1623 1.57035,-7.7982 0.14937,-1.318 0.16496,-2.6587 -0.0662,-3.9648 -0.23113,-1.3062 -0.71586,-2.5792 -1.50417,-3.6459 -1.08088,-1.4626 -2.66998,-2.4702 -3.85222,-3.8522 -1.09175,-1.2762 -1.8092,-2.8493 -2.18272,-4.4867 -0.37352,-1.6374 -0.41202,-3.3394 -0.24187,-5.0102 0.34031,-3.3417 1.49581,-6.5362 2.42459,-9.7642 2.5947,-9.0179 3.44668,-18.5625 2.21197,-27.8647 -1.23471,-9.3021 -4.57682,-18.3501 -9.91642,-26.0665 -3.85175,-5.5663 -8.68559,-10.3919 -12.62501,-15.8965 -1.96971,-2.7523 -3.71811,-5.6839 -4.93662,-8.8414 -1.21851,-3.1576 -1.89711,-6.5534 -1.69949,-9.9321 0.0752,-1.2867 0.27491,-2.593 0,-3.8522 -0.1982,-0.9078 -0.63895,-1.752 -1.20577,-2.4883 -0.56683,-0.7363 -1.25788,-1.3694 -1.99092,-1.9405 -1.46608,-1.142 -3.11118,-2.0496 -4.50776,-3.2757 -2.72964,-2.3964 -4.3604,-5.9982 -4.3604,-9.6305 0,-3.6324 1.63076,-7.2342 4.3604,-9.6306 z"
         id="path122" />
    </g>
  </g>
  <g
     id="layer3"
     style="display:inline;mix-blend-mode:normal"
     transform="translate(1638.8193,2774.2319)">
    <path
       style="display:inline;fill:#484a43;fill-rule:evenodd;stroke:#484a43;stroke-width:10;stroke-dasharray:none;stroke-opacity:0.00392157"
       d="m -1099.902,-1373.1905 607.30784,-1282.0944 813.11775,1234.8593 -1882.65439,-1116.7717 c 0,0 856.97888,84.3483 1423.79956,303.6539 566.82068,219.3057 1096.5281,701.778 1096.5281,701.778 0,0 -226.05349,-10.1218 -394.75012,-104.5919 -168.69663,-94.4701 -340.76719,-421.7416 -344.14112,-573.5685 -3.37394,-151.827 111.33977,-438.6113 111.33977,-438.6113 l 796.24811,674.7865 c 0,0 -988.56227,-53.9829 -1427.17351,-37.1132 -438.61124,16.8697 -1029.04939,172.0706 -1234.85929,465.6027 -205.8099,293.5321 786.12626,87.7222 863.72671,-91.0962 77.60045,-178.8184 -134.95731,-421.7416 -236.17529,-425.1155 -101.21792,-3.3739 259.79281,-506.0899 259.79281,-506.0899 l 1079.65844,317.1497 657.91693,47.235 -1484.53042,765.8827 -354.26292,53.983"
       id="path118"
       clip-path="url(#clipPath152)" />
  </g>
  <g
     id="layer4"
     style="opacity:0.716;mix-blend-mode:soft-light"
     transform="translate(1638.8193,2774.2319)">
    <path
       style="fill:#fefae0;fill-rule:evenodd;stroke:#484a43;stroke-width:10;stroke-dasharray:none;stroke-opacity:0.00392157"
       d="m -204.04686,-2772.9445 -465.6454,1747.4782"
       id="path153" />
    <path
       style="fill:#fefae0;fill-rule:evenodd;stroke:#484a43;stroke-width:10;stroke-dasharray:none;stroke-opacity:0.00392157"
       d="M -245.90263,-1020.2343 -68.01562,-2741.5527"
       id="path154" />
    <path
       style="fill:#fefae0;fill-rule:evenodd;stroke:#484a43;stroke-width:9.59021;stroke-dasharray:none;stroke-opacity:0.00392157"
       d="m 976.13701,-2684.5446 130.91789,14.4227 -371.80685,1461.508 -183.28508,-72.1139 z"
       id="path155"
       clip-path="url(#clipPath155)" />
  </g>
</svg>
