<?xml version="1.0" encoding="UTF-8" standalone="no" ?>
<!DOCTYPE svg PUBLIC "-//W3C//DTD SVG 1.1//EN" "http://www.w3.org/Graphics/SVG/1.1/DTD/svg11.dtd">
<svg xmlns="http://www.w3.org/2000/svg" xmlns:xlink="http://www.w3.org/1999/xlink" version="1.1" width="607.5" height="199.5" viewBox="12 82 405 133" xml:space="preserve">
<desc>Created with Fabric.js 4.6.0</desc>
<defs>
</defs>
<g transform="matrix(1 0 0 1 214.67 148.67)" id="fcBuwVgJqRhuq8OeC5hM6"  >
<path style="stroke: rgb(223,214,190); stroke-width: 2; stroke-dasharray: none; stroke-linecap: butt; stroke-dashoffset: 0; stroke-linejoin: miter; stroke-miterlimit: 4; fill: rgb(255,255,255); fill-opacity: 0; fill-rule: nonzero; opacity: 1;" vector-effect="non-scaling-stroke"  transform=" translate(0, 0)" d="M -195.73333 55.46692 L -120.53332999999999 56.80025 C -120.53332999999999 56.80025 -108 58.133579999999995 -102.39999999999999 48.80025 C -96.8 39.46692 -93.33332999999999 -59.19975 -102.39999999999999 -59.46642000000001 C -111.46667 -59.733090000000004 -114.39999999999999 44.00024999999999 -110.39999999999999 48.80025 C -106.39999999999999 53.600249999999996 -109.6 56.26692 -90.66667 56.80025 C -71.73334 57.33358 -19.466669999999993 56.80025 -19.466669999999993 56.80025 C -19.466669999999993 56.80025 -8.266669999999994 56.26692 -5.066669999999993 48.80025 C -1.866669999999993 41.33358 -9.333339999999993 -23.466420000000006 -16.26666999999999 -23.733080000000008 C -23.19999999999999 -23.99975000000001 -21.333339999999993 40.000249999999994 -16.26666999999999 48.80025 C -11.19999999999999 57.60025 7.20000000000001 57.86692 17.60000000000001 56.80025 C 28.000000000000007 55.733579999999996 94.93333000000001 59.46692 94.93333000000001 59.46692 C 94.93333000000001 59.46692 110.13333000000002 58.666920000000005 111.73333000000001 53.33359 C 113.33333 48.00026 117.06666000000001 24.00026 110.4 23.73359 C 103.73333000000001 23.46692 104 49.86692 106.13333 53.33359 C 108.26666 56.80026 113.6 59.46692 121.06666 59.46692 C 128.53333 59.46692 195.73333 58.133590000000005 195.73333 58.133590000000005" stroke-linecap="round" />
</g>
<g transform="matrix(1 0 0 1 327.07 154.27)" id="3bh-2TExflUJUyC3ISaNs"  >
<path style="stroke: rgb(223,214,190); stroke-width: 2; stroke-dasharray: none; stroke-linecap: butt; stroke-dashoffset: 0; stroke-linejoin: miter; stroke-miterlimit: 4; fill: rgb(255,255,255); fill-opacity: 0; fill-rule: nonzero; opacity: 1;" vector-effect="non-scaling-stroke"  transform=" translate(0, 0)" d="M 0.93421 26.93678 C 4.66754 33.07011 10.26754 35.20345 18.53421 32.00345 C 26.80088 28.80345 39.06754 -34.663219999999995 0.9342100000000002 -18.929879999999997 C -37.19912 -3.1965499999999967 -2.53246 10.403450000000003 8.40088 5.336790000000004 C 19.33421 0.2701200000000039 68.13421 -19.996539999999996 31.86755 -15.996539999999996 C -4.399119999999996 -11.996539999999996 -63.59911999999999 41.603460000000005 -52.13245 20.536790000000003 C -40.66578 -0.529879999999995 -3.599119999999999 6.936790000000004 12.134220000000006 -1.063209999999998 C 27.86755000000001 -9.063209999999998 -49.19910999999999 -24.796539999999997 -36.13244999999999 -14.129879999999998 C -23.06577999999999 -3.4632099999999983 72.40088000000002 5.070120000000001 50.267550000000014 22.40345 C 28.134220000000013 39.736779999999996 4.400880000000015 8.003449999999999 -7.865779999999987 7.47012 C -20.132449999999984 6.936789999999999 -47.59910999999999 19.47012 -23.59910999999999 20.27012 C 0.40089000000001107 21.07012 37.20089000000001 -23.196550000000002 27.067560000000014 -29.329880000000003 C 16.934230000000014 -35.463210000000004 0.13423000000001295 -35.19655 -11.065769999999986 -25.863210000000002 C -22.265769999999986 -16.529880000000002 -45.19909999999999 6.4034599999999955 -33.19909999999999 10.670119999999997 C -21.199099999999987 14.936789999999998 28.13423000000001 24.27012 34.267570000000006 15.203449999999997 C 40.40090000000001 6.136779999999996 -36.13243 -14.396550000000005 -44.13243 -3.4632200000000033 C -52.13243 7.4701099999999965 -31.33243 29.870109999999993 -18.532429999999998 28.003449999999997 C -5.732429999999997 26.136779999999998 -6.7990999999999975 24.536779999999997 -6.7990999999999975 24.536779999999997" stroke-linecap="round" />
</g>
<g transform="matrix(0.87 -0.06 0.07 1 218.15 158.02)" id="Odn9F6by9-apH-itTJ665"  >
<path style="stroke: rgb(223,214,190); stroke-width: 2; stroke-dasharray: none; stroke-linecap: butt; stroke-dashoffset: 0; stroke-linejoin: miter; stroke-miterlimit: 4; fill: rgb(0,0,0); fill-opacity: 0; fill-rule: nonzero; opacity: 1;" vector-effect="non-scaling-stroke"  transform=" translate(0, 0)" d="M -15.29917 -29.11503 C -15.29917 -29.11503 -12.36584 -18.9817 -5.432500000000001 -15.248360000000002 C 1.5008299999999988 -11.515030000000001 9.500829999999999 -10.181690000000001 4.167499999999999 -12.315030000000002 C -1.1658300000000015 -14.448360000000001 -9.965830000000002 -13.915030000000002 -13.965830000000002 -12.315030000000002 C -17.965830000000004 -10.715030000000002 -0.6325000000000021 1.5516399999999972 6.034169999999998 2.618299999999998 C 12.700839999999998 3.684969999999998 11.100839999999998 1.284969999999998 6.034169999999998 0.4849699999999979 C 0.9674999999999976 -0.31503000000000214 -9.699160000000003 0.4849699999999979 -13.965830000000002 2.618299999999998 C -18.2325 4.751629999999998 3.900839999999997 20.75163 7.900839999999997 19.4183 C 11.900839999999997 18.08497 -2.232490000000004 10.084969999999998 -9.165830000000001 11.951629999999998 C -16.09916 13.818299999999997 3.9008399999999988 27.4183 10.300839999999999 28.75163 C 16.70084 30.08496 16.434169999999998 27.4183 12.434169999999998 26.08496 C 8.434169999999998 24.75163 -3.565830000000002 26.35163 -9.165830000000003 28.75163" stroke-linecap="round" />
</g>
<g transform="matrix(1 0 0 1 128.62 136.23)" id="sTv0fUKIp0qlEv4Gnzshy"  >
<path style="stroke: rgb(223,214,190); stroke-width: 2; stroke-dasharray: none; stroke-linecap: butt; stroke-dashoffset: 0; stroke-linejoin: miter; stroke-miterlimit: 4; fill: rgb(0,0,0); fill-opacity: 0; fill-rule: nonzero; opacity: 1;" vector-effect="non-scaling-stroke"  transform=" translate(0, 0)" d="M -13.41394 -44.5956 C -13.41394 -44.5956 -8.08061 -33.66227 -3.01394 -29.128929999999997 C 2.0527300000000004 -24.595599999999997 5.25273 -25.662259999999996 1.2527300000000006 -29.128929999999997 C -2.7472699999999994 -32.5956 -8.347269999999998 -33.395599999999995 -12.0806 -32.32893 C -15.813930000000001 -31.26226 -6.480600000000001 -8.86226 -0.08060000000000045 -5.928930000000001 C 6.3194 -2.995600000000001 12.186069999999999 -3.5289300000000012 8.452729999999999 -5.928930000000001 C 4.7193999999999985 -8.328930000000001 -8.0806 -11.52893 -13.41394 -10.46226 C -18.74727 -9.39559 -3.8139400000000006 19.40441 5.25273 23.13774 C 14.3194 26.87107 13.25273 21.85277 10.05273 20.7861 C 6.85273 19.719430000000003 -7.2806 17.53774 -13.41394 17.80441 C -19.54727 18.071080000000002 -4.880610000000001 42.33774 5.25273 44.204409999999996 C 15.38606 46.071079999999995 19.1194 40.737739999999995 8.452729999999999 39.137739999999994 C -2.213940000000001 37.53773999999999 -8.347270000000002 31.404409999999995 -9.680600000000002 27.937739999999994" stroke-linecap="round" />
</g>
<g transform="matrix(-0.89 0.08 0.08 0.89 184.27 157.89)" id="rD0MANiLwo7La5W2EN0yJ"  >
<path style="stroke: rgb(223,214,190); stroke-width: 2; stroke-dasharray: none; stroke-linecap: butt; stroke-dashoffset: 0; stroke-linejoin: miter; stroke-miterlimit: 4; fill: rgb(0,0,0); fill-opacity: 0; fill-rule: nonzero; opacity: 1;" vector-effect="non-scaling-stroke"  transform=" translate(0, 0)" d="M -15.29917 -29.11503 C -15.29917 -29.11503 -12.36584 -18.9817 -5.432500000000001 -15.248360000000002 C 1.5008299999999988 -11.515030000000001 9.500829999999999 -10.181690000000001 4.167499999999999 -12.315030000000002 C -1.1658300000000015 -14.448360000000001 -9.965830000000002 -13.915030000000002 -13.965830000000002 -12.315030000000002 C -17.965830000000004 -10.715030000000002 -0.6325000000000021 1.5516399999999972 6.034169999999998 2.618299999999998 C 12.700839999999998 3.684969999999998 11.100839999999998 1.284969999999998 6.034169999999998 0.4849699999999979 C 0.9674999999999976 -0.31503000000000214 -9.699160000000003 0.4849699999999979 -13.965830000000002 2.618299999999998 C -18.2325 4.751629999999998 3.900839999999997 20.75163 7.900839999999997 19.4183 C 11.900839999999997 18.08497 -2.232490000000004 10.084969999999998 -9.165830000000001 11.951629999999998 C -16.09916 13.818299999999997 3.9008399999999988 27.4183 10.300839999999999 28.75163 C 16.70084 30.08496 16.434169999999998 27.4183 12.434169999999998 26.08496 C 8.434169999999998 24.75163 -3.565830000000002 26.35163 -9.165830000000003 28.75163" stroke-linecap="round" />
</g>
<g transform="matrix(-1 0 0 1 94.89 140.48)" id="p2HIPYcF8pnWCVTFRKD0L"  >
<path style="stroke: rgb(223,214,190); stroke-width: 2; stroke-dasharray: none; stroke-linecap: butt; stroke-dashoffset: 0; stroke-linejoin: miter; stroke-miterlimit: 4; fill: rgb(0,0,0); fill-opacity: 0; fill-rule: nonzero; opacity: 1;" vector-effect="non-scaling-stroke"  transform=" translate(0, 0)" d="M -13.41394 -44.5956 C -13.41394 -44.5956 -8.08061 -33.66227 -3.01394 -29.128929999999997 C 2.0527300000000004 -24.595599999999997 5.25273 -25.662259999999996 1.2527300000000006 -29.128929999999997 C -2.7472699999999994 -32.5956 -8.347269999999998 -33.395599999999995 -12.0806 -32.32893 C -15.813930000000001 -31.26226 -6.480600000000001 -8.86226 -0.08060000000000045 -5.928930000000001 C 6.3194 -2.995600000000001 12.186069999999999 -3.5289300000000012 8.452729999999999 -5.928930000000001 C 4.7193999999999985 -8.328930000000001 -8.0806 -11.52893 -13.41394 -10.46226 C -18.74727 -9.39559 -3.8139400000000006 19.40441 5.25273 23.13774 C 14.3194 26.87107 13.25273 21.85277 10.05273 20.7861 C 6.85273 19.719430000000003 -7.2806 17.53774 -13.41394 17.80441 C -19.54727 18.071080000000002 -4.880610000000001 42.33774 5.25273 44.204409999999996 C 15.38606 46.071079999999995 19.1194 40.737739999999995 8.452729999999999 39.137739999999994 C -2.213940000000001 37.53773999999999 -8.347270000000002 31.404409999999995 -9.680600000000002 27.937739999999994" stroke-linecap="round" />
</g>
</svg>